<mxfile host="app.diagrams.net" modified="2020-09-09T14:36:12.610Z" agent="5.0 (Windows NT 10.0; Win64; x64) AppleWebKit/537.36 (KHTML, like Gecko) Chrome/85.0.4183.83 Safari/537.36" etag="3MYh-AYr_65htQ_k7pPl" version="13.6.9" type="github">
  <diagram id="1mHlOgb-g8Q1lOIw1VWz" name="Page-1">
    <mxGraphModel dx="1422" dy="745" grid="1" gridSize="10" guides="1" tooltips="1" connect="1" arrows="1" fold="1" page="1" pageScale="1" pageWidth="827" pageHeight="1169" math="0" shadow="0">
      <root>
        <mxCell id="0" />
        <mxCell id="1" parent="0" />
        <mxCell id="K9l5YCX1X9xidpUEGkAi-16" value="" style="edgeStyle=orthogonalEdgeStyle;rounded=0;orthogonalLoop=1;jettySize=auto;html=1;strokeWidth=2;" edge="1" parent="1" source="K9l5YCX1X9xidpUEGkAi-2" target="K9l5YCX1X9xidpUEGkAi-9">
          <mxGeometry relative="1" as="geometry" />
        </mxCell>
        <mxCell id="K9l5YCX1X9xidpUEGkAi-2" value="" style="shape=table;html=1;whiteSpace=wrap;startSize=0;container=1;collapsible=0;childLayout=tableLayout;strokeWidth=2;" vertex="1" parent="1">
          <mxGeometry x="60" y="50" width="110" height="90" as="geometry" />
        </mxCell>
        <mxCell id="K9l5YCX1X9xidpUEGkAi-3" value="" style="shape=partialRectangle;html=1;whiteSpace=wrap;collapsible=0;dropTarget=0;pointerEvents=0;fillColor=none;top=0;left=0;bottom=0;right=0;points=[[0,0.5],[1,0.5]];portConstraint=eastwest;" vertex="1" parent="K9l5YCX1X9xidpUEGkAi-2">
          <mxGeometry width="110" height="30" as="geometry" />
        </mxCell>
        <mxCell id="K9l5YCX1X9xidpUEGkAi-4" value="&lt;font style=&quot;font-size: 15px&quot;&gt;task struct&lt;/font&gt;" style="shape=partialRectangle;html=1;whiteSpace=wrap;connectable=0;overflow=hidden;fillColor=none;top=0;left=0;bottom=0;right=0;" vertex="1" parent="K9l5YCX1X9xidpUEGkAi-3">
          <mxGeometry width="110" height="30" as="geometry" />
        </mxCell>
        <mxCell id="K9l5YCX1X9xidpUEGkAi-5" value="" style="shape=partialRectangle;html=1;whiteSpace=wrap;collapsible=0;dropTarget=0;pointerEvents=0;fillColor=none;top=0;left=0;bottom=0;right=0;points=[[0,0.5],[1,0.5]];portConstraint=eastwest;" vertex="1" parent="K9l5YCX1X9xidpUEGkAi-2">
          <mxGeometry y="30" width="110" height="30" as="geometry" />
        </mxCell>
        <mxCell id="K9l5YCX1X9xidpUEGkAi-6" value="&lt;font style=&quot;font-size: 15px&quot;&gt;files&lt;/font&gt;" style="shape=partialRectangle;html=1;whiteSpace=wrap;connectable=0;overflow=hidden;fillColor=none;top=0;left=0;bottom=0;right=0;" vertex="1" parent="K9l5YCX1X9xidpUEGkAi-5">
          <mxGeometry width="110" height="30" as="geometry" />
        </mxCell>
        <mxCell id="K9l5YCX1X9xidpUEGkAi-7" value="" style="shape=partialRectangle;html=1;whiteSpace=wrap;collapsible=0;dropTarget=0;pointerEvents=0;fillColor=none;top=0;left=0;bottom=0;right=0;points=[[0,0.5],[1,0.5]];portConstraint=eastwest;" vertex="1" parent="K9l5YCX1X9xidpUEGkAi-2">
          <mxGeometry y="60" width="110" height="30" as="geometry" />
        </mxCell>
        <mxCell id="K9l5YCX1X9xidpUEGkAi-8" value="" style="shape=partialRectangle;html=1;whiteSpace=wrap;connectable=0;overflow=hidden;fillColor=none;top=0;left=0;bottom=0;right=0;" vertex="1" parent="K9l5YCX1X9xidpUEGkAi-7">
          <mxGeometry width="110" height="30" as="geometry" />
        </mxCell>
        <mxCell id="K9l5YCX1X9xidpUEGkAi-9" value="" style="shape=table;html=1;whiteSpace=wrap;startSize=0;container=1;collapsible=0;childLayout=tableLayout;strokeWidth=2;" vertex="1" parent="1">
          <mxGeometry x="250" y="50" width="110" height="90" as="geometry" />
        </mxCell>
        <mxCell id="K9l5YCX1X9xidpUEGkAi-10" value="" style="shape=partialRectangle;html=1;whiteSpace=wrap;collapsible=0;dropTarget=0;pointerEvents=0;fillColor=none;top=0;left=0;bottom=0;right=0;points=[[0,0.5],[1,0.5]];portConstraint=eastwest;" vertex="1" parent="K9l5YCX1X9xidpUEGkAi-9">
          <mxGeometry width="110" height="30" as="geometry" />
        </mxCell>
        <mxCell id="K9l5YCX1X9xidpUEGkAi-11" value="&lt;font style=&quot;font-size: 15px&quot;&gt;files struct&lt;/font&gt;" style="shape=partialRectangle;html=1;whiteSpace=wrap;connectable=0;overflow=hidden;fillColor=none;top=0;left=0;bottom=0;right=0;" vertex="1" parent="K9l5YCX1X9xidpUEGkAi-10">
          <mxGeometry width="110" height="30" as="geometry" />
        </mxCell>
        <mxCell id="K9l5YCX1X9xidpUEGkAi-12" value="" style="shape=partialRectangle;html=1;whiteSpace=wrap;collapsible=0;dropTarget=0;pointerEvents=0;fillColor=none;top=0;left=0;bottom=0;right=0;points=[[0,0.5],[1,0.5]];portConstraint=eastwest;" vertex="1" parent="K9l5YCX1X9xidpUEGkAi-9">
          <mxGeometry y="30" width="110" height="30" as="geometry" />
        </mxCell>
        <mxCell id="K9l5YCX1X9xidpUEGkAi-13" value="&lt;font style=&quot;font-size: 15px&quot;&gt;fd&lt;/font&gt;" style="shape=partialRectangle;html=1;whiteSpace=wrap;connectable=0;overflow=hidden;fillColor=none;top=0;left=0;bottom=0;right=0;" vertex="1" parent="K9l5YCX1X9xidpUEGkAi-12">
          <mxGeometry width="110" height="30" as="geometry" />
        </mxCell>
        <mxCell id="K9l5YCX1X9xidpUEGkAi-14" value="" style="shape=partialRectangle;html=1;whiteSpace=wrap;collapsible=0;dropTarget=0;pointerEvents=0;fillColor=none;top=0;left=0;bottom=0;right=0;points=[[0,0.5],[1,0.5]];portConstraint=eastwest;" vertex="1" parent="K9l5YCX1X9xidpUEGkAi-9">
          <mxGeometry y="60" width="110" height="30" as="geometry" />
        </mxCell>
        <mxCell id="K9l5YCX1X9xidpUEGkAi-15" value="" style="shape=partialRectangle;html=1;whiteSpace=wrap;connectable=0;overflow=hidden;fillColor=none;top=0;left=0;bottom=0;right=0;" vertex="1" parent="K9l5YCX1X9xidpUEGkAi-14">
          <mxGeometry width="110" height="30" as="geometry" />
        </mxCell>
        <mxCell id="K9l5YCX1X9xidpUEGkAi-24" value="" style="edgeStyle=orthogonalEdgeStyle;rounded=0;orthogonalLoop=1;jettySize=auto;html=1;strokeWidth=2;" edge="1" parent="1">
          <mxGeometry relative="1" as="geometry">
            <mxPoint x="360" y="94.5" as="sourcePoint" />
            <mxPoint x="440" y="94.5" as="targetPoint" />
          </mxGeometry>
        </mxCell>
        <mxCell id="K9l5YCX1X9xidpUEGkAi-17" value="" style="shape=table;html=1;whiteSpace=wrap;startSize=0;container=1;collapsible=0;childLayout=tableLayout;strokeWidth=2;" vertex="1" parent="1">
          <mxGeometry x="440" y="80" width="300" height="30" as="geometry" />
        </mxCell>
        <mxCell id="K9l5YCX1X9xidpUEGkAi-18" value="" style="shape=partialRectangle;html=1;whiteSpace=wrap;collapsible=0;dropTarget=0;pointerEvents=0;fillColor=none;top=0;left=0;bottom=0;right=0;points=[[0,0.5],[1,0.5]];portConstraint=eastwest;" vertex="1" parent="K9l5YCX1X9xidpUEGkAi-17">
          <mxGeometry width="300" height="30" as="geometry" />
        </mxCell>
        <mxCell id="K9l5YCX1X9xidpUEGkAi-19" value="" style="shape=partialRectangle;html=1;whiteSpace=wrap;connectable=0;overflow=hidden;fillColor=none;top=0;left=0;bottom=0;right=0;" vertex="1" parent="K9l5YCX1X9xidpUEGkAi-18">
          <mxGeometry width="60" height="30" as="geometry" />
        </mxCell>
        <mxCell id="K9l5YCX1X9xidpUEGkAi-20" value="" style="shape=partialRectangle;html=1;whiteSpace=wrap;connectable=0;overflow=hidden;fillColor=none;top=0;left=0;bottom=0;right=0;" vertex="1" parent="K9l5YCX1X9xidpUEGkAi-18">
          <mxGeometry x="60" width="60" height="30" as="geometry" />
        </mxCell>
        <mxCell id="K9l5YCX1X9xidpUEGkAi-21" value="" style="shape=partialRectangle;html=1;whiteSpace=wrap;connectable=0;overflow=hidden;fillColor=none;top=0;left=0;bottom=0;right=0;" vertex="1" parent="K9l5YCX1X9xidpUEGkAi-18">
          <mxGeometry x="120" width="60" height="30" as="geometry" />
        </mxCell>
        <mxCell id="K9l5YCX1X9xidpUEGkAi-22" value="" style="shape=partialRectangle;html=1;whiteSpace=wrap;connectable=0;overflow=hidden;fillColor=none;top=0;left=0;bottom=0;right=0;" vertex="1" parent="K9l5YCX1X9xidpUEGkAi-18">
          <mxGeometry x="180" width="60" height="30" as="geometry" />
        </mxCell>
        <mxCell id="K9l5YCX1X9xidpUEGkAi-23" value="" style="shape=partialRectangle;html=1;whiteSpace=wrap;connectable=0;overflow=hidden;fillColor=none;top=0;left=0;bottom=0;right=0;" vertex="1" parent="K9l5YCX1X9xidpUEGkAi-18">
          <mxGeometry x="240" width="60" height="30" as="geometry" />
        </mxCell>
        <mxCell id="K9l5YCX1X9xidpUEGkAi-25" value="" style="endArrow=classic;html=1;exitX=0.487;exitY=1;exitDx=0;exitDy=0;exitPerimeter=0;" edge="1" parent="1" source="K9l5YCX1X9xidpUEGkAi-18">
          <mxGeometry width="50" height="50" relative="1" as="geometry">
            <mxPoint x="590" y="190" as="sourcePoint" />
            <mxPoint x="586" y="160" as="targetPoint" />
          </mxGeometry>
        </mxCell>
        <mxCell id="K9l5YCX1X9xidpUEGkAi-26" value="" style="shape=table;html=1;whiteSpace=wrap;startSize=0;container=1;collapsible=0;childLayout=tableLayout;strokeWidth=2;" vertex="1" parent="1">
          <mxGeometry x="530" y="160" width="120" height="190" as="geometry" />
        </mxCell>
        <mxCell id="K9l5YCX1X9xidpUEGkAi-27" value="" style="shape=partialRectangle;html=1;whiteSpace=wrap;collapsible=0;dropTarget=0;pointerEvents=0;fillColor=none;top=0;left=0;bottom=0;right=0;points=[[0,0.5],[1,0.5]];portConstraint=eastwest;" vertex="1" parent="K9l5YCX1X9xidpUEGkAi-26">
          <mxGeometry width="120" height="30" as="geometry" />
        </mxCell>
        <mxCell id="K9l5YCX1X9xidpUEGkAi-28" value="&lt;font style=&quot;font-size: 15px&quot;&gt;file&lt;/font&gt;" style="shape=partialRectangle;html=1;whiteSpace=wrap;connectable=0;overflow=hidden;fillColor=none;top=0;left=0;bottom=0;right=0;" vertex="1" parent="K9l5YCX1X9xidpUEGkAi-27">
          <mxGeometry width="120" height="30" as="geometry" />
        </mxCell>
        <mxCell id="K9l5YCX1X9xidpUEGkAi-29" value="" style="shape=partialRectangle;html=1;whiteSpace=wrap;collapsible=0;dropTarget=0;pointerEvents=0;fillColor=none;top=0;left=0;bottom=0;right=0;points=[[0,0.5],[1,0.5]];portConstraint=eastwest;" vertex="1" parent="K9l5YCX1X9xidpUEGkAi-26">
          <mxGeometry y="30" width="120" height="30" as="geometry" />
        </mxCell>
        <mxCell id="K9l5YCX1X9xidpUEGkAi-30" value="&lt;font style=&quot;font-size: 15px&quot;&gt;f_list&lt;/font&gt;" style="shape=partialRectangle;html=1;whiteSpace=wrap;connectable=0;overflow=hidden;fillColor=none;top=0;left=0;bottom=0;right=0;" vertex="1" parent="K9l5YCX1X9xidpUEGkAi-29">
          <mxGeometry width="120" height="30" as="geometry" />
        </mxCell>
        <mxCell id="K9l5YCX1X9xidpUEGkAi-31" value="" style="shape=partialRectangle;html=1;whiteSpace=wrap;collapsible=0;dropTarget=0;pointerEvents=0;fillColor=none;top=0;left=0;bottom=0;right=0;points=[[0,0.5],[1,0.5]];portConstraint=eastwest;" vertex="1" parent="K9l5YCX1X9xidpUEGkAi-26">
          <mxGeometry y="60" width="120" height="20" as="geometry" />
        </mxCell>
        <mxCell id="K9l5YCX1X9xidpUEGkAi-32" value="" style="shape=partialRectangle;html=1;whiteSpace=wrap;connectable=0;overflow=hidden;fillColor=none;top=0;left=0;bottom=0;right=0;" vertex="1" parent="K9l5YCX1X9xidpUEGkAi-31">
          <mxGeometry width="120" height="20" as="geometry" />
        </mxCell>
        <mxCell id="K9l5YCX1X9xidpUEGkAi-33" value="" style="shape=partialRectangle;html=1;whiteSpace=wrap;collapsible=0;dropTarget=0;pointerEvents=0;fillColor=none;top=0;left=0;bottom=0;right=0;points=[[0,0.5],[1,0.5]];portConstraint=eastwest;" vertex="1" parent="K9l5YCX1X9xidpUEGkAi-26">
          <mxGeometry y="80" width="120" height="30" as="geometry" />
        </mxCell>
        <mxCell id="K9l5YCX1X9xidpUEGkAi-34" value="&lt;font style=&quot;font-size: 15px&quot;&gt;f_dentry&lt;/font&gt;" style="shape=partialRectangle;html=1;whiteSpace=wrap;connectable=0;overflow=hidden;fillColor=none;top=0;left=0;bottom=0;right=0;" vertex="1" parent="K9l5YCX1X9xidpUEGkAi-33">
          <mxGeometry width="120" height="30" as="geometry" />
        </mxCell>
        <mxCell id="K9l5YCX1X9xidpUEGkAi-35" value="" style="shape=partialRectangle;html=1;whiteSpace=wrap;collapsible=0;dropTarget=0;pointerEvents=0;fillColor=none;top=0;left=0;bottom=0;right=0;points=[[0,0.5],[1,0.5]];portConstraint=eastwest;" vertex="1" parent="K9l5YCX1X9xidpUEGkAi-26">
          <mxGeometry y="110" width="120" height="20" as="geometry" />
        </mxCell>
        <mxCell id="K9l5YCX1X9xidpUEGkAi-36" value="" style="shape=partialRectangle;html=1;whiteSpace=wrap;connectable=0;overflow=hidden;fillColor=none;top=0;left=0;bottom=0;right=0;" vertex="1" parent="K9l5YCX1X9xidpUEGkAi-35">
          <mxGeometry width="120" height="20" as="geometry" />
        </mxCell>
        <mxCell id="K9l5YCX1X9xidpUEGkAi-37" value="" style="shape=partialRectangle;html=1;whiteSpace=wrap;collapsible=0;dropTarget=0;pointerEvents=0;fillColor=none;top=0;left=0;bottom=0;right=0;points=[[0,0.5],[1,0.5]];portConstraint=eastwest;" vertex="1" parent="K9l5YCX1X9xidpUEGkAi-26">
          <mxGeometry y="130" width="120" height="30" as="geometry" />
        </mxCell>
        <mxCell id="K9l5YCX1X9xidpUEGkAi-38" value="&lt;font style=&quot;font-size: 15px&quot;&gt;f_op&lt;/font&gt;" style="shape=partialRectangle;html=1;whiteSpace=wrap;connectable=0;overflow=hidden;fillColor=none;top=0;left=0;bottom=0;right=0;" vertex="1" parent="K9l5YCX1X9xidpUEGkAi-37">
          <mxGeometry width="120" height="30" as="geometry" />
        </mxCell>
        <mxCell id="K9l5YCX1X9xidpUEGkAi-39" value="" style="shape=partialRectangle;html=1;whiteSpace=wrap;collapsible=0;dropTarget=0;pointerEvents=0;fillColor=none;top=0;left=0;bottom=0;right=0;points=[[0,0.5],[1,0.5]];portConstraint=eastwest;" vertex="1" parent="K9l5YCX1X9xidpUEGkAi-26">
          <mxGeometry y="160" width="120" height="30" as="geometry" />
        </mxCell>
        <mxCell id="K9l5YCX1X9xidpUEGkAi-40" value="" style="shape=partialRectangle;html=1;whiteSpace=wrap;connectable=0;overflow=hidden;fillColor=none;top=0;left=0;bottom=0;right=0;" vertex="1" parent="K9l5YCX1X9xidpUEGkAi-39">
          <mxGeometry width="120" height="30" as="geometry" />
        </mxCell>
        <mxCell id="K9l5YCX1X9xidpUEGkAi-41" value="" style="shape=table;html=1;whiteSpace=wrap;startSize=0;container=1;collapsible=0;childLayout=tableLayout;strokeWidth=2;" vertex="1" parent="1">
          <mxGeometry x="230" y="170" width="140" height="102" as="geometry" />
        </mxCell>
        <mxCell id="K9l5YCX1X9xidpUEGkAi-42" value="" style="shape=partialRectangle;html=1;whiteSpace=wrap;collapsible=0;dropTarget=0;pointerEvents=0;fillColor=none;top=0;left=0;bottom=0;right=0;points=[[0,0.5],[1,0.5]];portConstraint=eastwest;" vertex="1" parent="K9l5YCX1X9xidpUEGkAi-41">
          <mxGeometry width="140" height="31" as="geometry" />
        </mxCell>
        <mxCell id="K9l5YCX1X9xidpUEGkAi-43" value="&lt;font style=&quot;font-size: 15px&quot;&gt;super block&lt;/font&gt;" style="shape=partialRectangle;html=1;whiteSpace=wrap;connectable=0;overflow=hidden;fillColor=none;top=0;left=0;bottom=0;right=0;" vertex="1" parent="K9l5YCX1X9xidpUEGkAi-42">
          <mxGeometry width="140" height="31" as="geometry" />
        </mxCell>
        <mxCell id="K9l5YCX1X9xidpUEGkAi-44" value="" style="shape=partialRectangle;html=1;whiteSpace=wrap;collapsible=0;dropTarget=0;pointerEvents=0;fillColor=none;top=0;left=0;bottom=0;right=0;points=[[0,0.5],[1,0.5]];portConstraint=eastwest;" vertex="1" parent="K9l5YCX1X9xidpUEGkAi-41">
          <mxGeometry y="31" width="140" height="20" as="geometry" />
        </mxCell>
        <mxCell id="K9l5YCX1X9xidpUEGkAi-45" value="" style="shape=partialRectangle;html=1;whiteSpace=wrap;connectable=0;overflow=hidden;fillColor=none;top=0;left=0;bottom=0;right=0;" vertex="1" parent="K9l5YCX1X9xidpUEGkAi-44">
          <mxGeometry width="140" height="20" as="geometry" />
        </mxCell>
        <mxCell id="K9l5YCX1X9xidpUEGkAi-46" value="" style="shape=partialRectangle;html=1;whiteSpace=wrap;collapsible=0;dropTarget=0;pointerEvents=0;fillColor=none;top=0;left=0;bottom=0;right=0;points=[[0,0.5],[1,0.5]];portConstraint=eastwest;" vertex="1" parent="K9l5YCX1X9xidpUEGkAi-41">
          <mxGeometry y="51" width="140" height="31" as="geometry" />
        </mxCell>
        <mxCell id="K9l5YCX1X9xidpUEGkAi-47" value="&lt;font style=&quot;font-size: 15px&quot;&gt;s_files&lt;/font&gt;" style="shape=partialRectangle;html=1;whiteSpace=wrap;connectable=0;overflow=hidden;fillColor=none;top=0;left=0;bottom=0;right=0;" vertex="1" parent="K9l5YCX1X9xidpUEGkAi-46">
          <mxGeometry width="140" height="31" as="geometry" />
        </mxCell>
        <mxCell id="K9l5YCX1X9xidpUEGkAi-48" value="" style="shape=partialRectangle;html=1;whiteSpace=wrap;collapsible=0;dropTarget=0;pointerEvents=0;fillColor=none;top=0;left=0;bottom=0;right=0;points=[[0,0.5],[1,0.5]];portConstraint=eastwest;" vertex="1" parent="K9l5YCX1X9xidpUEGkAi-41">
          <mxGeometry y="82" width="140" height="20" as="geometry" />
        </mxCell>
        <mxCell id="K9l5YCX1X9xidpUEGkAi-49" value="" style="shape=partialRectangle;html=1;whiteSpace=wrap;connectable=0;overflow=hidden;fillColor=none;top=0;left=0;bottom=0;right=0;" vertex="1" parent="K9l5YCX1X9xidpUEGkAi-48">
          <mxGeometry width="140" height="20" as="geometry" />
        </mxCell>
        <mxCell id="K9l5YCX1X9xidpUEGkAi-50" value="" style="endArrow=classic;html=1;exitX=1;exitY=0.5;exitDx=0;exitDy=0;entryX=0.008;entryY=0.3;entryDx=0;entryDy=0;entryPerimeter=0;strokeWidth=2;" edge="1" parent="1" source="K9l5YCX1X9xidpUEGkAi-46">
          <mxGeometry width="50" height="50" relative="1" as="geometry">
            <mxPoint x="370" y="241.5" as="sourcePoint" />
            <mxPoint x="530.96" y="204" as="targetPoint" />
            <Array as="points">
              <mxPoint x="400" y="237" />
              <mxPoint x="400" y="205" />
              <mxPoint x="450" y="205" />
              <mxPoint x="490" y="205" />
              <mxPoint x="510" y="205" />
            </Array>
          </mxGeometry>
        </mxCell>
        <mxCell id="K9l5YCX1X9xidpUEGkAi-51" value="" style="shape=table;html=1;whiteSpace=wrap;startSize=0;container=1;collapsible=0;childLayout=tableLayout;strokeWidth=2;" vertex="1" parent="1">
          <mxGeometry x="230" y="320" width="140" height="102" as="geometry" />
        </mxCell>
        <mxCell id="K9l5YCX1X9xidpUEGkAi-52" value="" style="shape=partialRectangle;html=1;whiteSpace=wrap;collapsible=0;dropTarget=0;pointerEvents=0;fillColor=none;top=0;left=0;bottom=0;right=0;points=[[0,0.5],[1,0.5]];portConstraint=eastwest;" vertex="1" parent="K9l5YCX1X9xidpUEGkAi-51">
          <mxGeometry width="140" height="31" as="geometry" />
        </mxCell>
        <mxCell id="K9l5YCX1X9xidpUEGkAi-53" value="&lt;font style=&quot;font-size: 15px&quot;&gt;dentry&lt;/font&gt;" style="shape=partialRectangle;html=1;whiteSpace=wrap;connectable=0;overflow=hidden;fillColor=none;top=0;left=0;bottom=0;right=0;" vertex="1" parent="K9l5YCX1X9xidpUEGkAi-52">
          <mxGeometry width="140" height="31" as="geometry" />
        </mxCell>
        <mxCell id="K9l5YCX1X9xidpUEGkAi-54" value="" style="shape=partialRectangle;html=1;whiteSpace=wrap;collapsible=0;dropTarget=0;pointerEvents=0;fillColor=none;top=0;left=0;bottom=0;right=0;points=[[0,0.5],[1,0.5]];portConstraint=eastwest;" vertex="1" parent="K9l5YCX1X9xidpUEGkAi-51">
          <mxGeometry y="31" width="140" height="20" as="geometry" />
        </mxCell>
        <mxCell id="K9l5YCX1X9xidpUEGkAi-55" value="" style="shape=partialRectangle;html=1;whiteSpace=wrap;connectable=0;overflow=hidden;fillColor=none;top=0;left=0;bottom=0;right=0;" vertex="1" parent="K9l5YCX1X9xidpUEGkAi-54">
          <mxGeometry width="140" height="20" as="geometry" />
        </mxCell>
        <mxCell id="K9l5YCX1X9xidpUEGkAi-56" value="" style="shape=partialRectangle;html=1;whiteSpace=wrap;collapsible=0;dropTarget=0;pointerEvents=0;fillColor=none;top=0;left=0;bottom=0;right=0;points=[[0,0.5],[1,0.5]];portConstraint=eastwest;" vertex="1" parent="K9l5YCX1X9xidpUEGkAi-51">
          <mxGeometry y="51" width="140" height="31" as="geometry" />
        </mxCell>
        <mxCell id="K9l5YCX1X9xidpUEGkAi-57" value="&lt;font style=&quot;font-size: 15px&quot;&gt;d_inode&lt;/font&gt;" style="shape=partialRectangle;html=1;whiteSpace=wrap;connectable=0;overflow=hidden;fillColor=none;top=0;left=0;bottom=0;right=0;" vertex="1" parent="K9l5YCX1X9xidpUEGkAi-56">
          <mxGeometry width="140" height="31" as="geometry" />
        </mxCell>
        <mxCell id="K9l5YCX1X9xidpUEGkAi-58" value="" style="shape=partialRectangle;html=1;whiteSpace=wrap;collapsible=0;dropTarget=0;pointerEvents=0;fillColor=none;top=0;left=0;bottom=0;right=0;points=[[0,0.5],[1,0.5]];portConstraint=eastwest;" vertex="1" parent="K9l5YCX1X9xidpUEGkAi-51">
          <mxGeometry y="82" width="140" height="20" as="geometry" />
        </mxCell>
        <mxCell id="K9l5YCX1X9xidpUEGkAi-59" value="" style="shape=partialRectangle;html=1;whiteSpace=wrap;connectable=0;overflow=hidden;fillColor=none;top=0;left=0;bottom=0;right=0;" vertex="1" parent="K9l5YCX1X9xidpUEGkAi-58">
          <mxGeometry width="140" height="20" as="geometry" />
        </mxCell>
        <mxCell id="K9l5YCX1X9xidpUEGkAi-60" value="" style="endArrow=classic;html=1;entryX=1;entryY=0.5;entryDx=0;entryDy=0;exitX=0;exitY=0.5;exitDx=0;exitDy=0;strokeWidth=2;" edge="1" parent="1" source="K9l5YCX1X9xidpUEGkAi-33" target="K9l5YCX1X9xidpUEGkAi-52">
          <mxGeometry width="50" height="50" relative="1" as="geometry">
            <mxPoint x="390" y="390" as="sourcePoint" />
            <mxPoint x="440" y="340" as="targetPoint" />
            <Array as="points">
              <mxPoint x="510" y="255" />
              <mxPoint x="510" y="336" />
              <mxPoint x="460" y="336" />
            </Array>
          </mxGeometry>
        </mxCell>
        <mxCell id="K9l5YCX1X9xidpUEGkAi-73" value="" style="shape=table;html=1;whiteSpace=wrap;startSize=0;container=1;collapsible=0;childLayout=tableLayout;strokeWidth=2;" vertex="1" parent="1">
          <mxGeometry x="60" y="320" width="110" height="102" as="geometry" />
        </mxCell>
        <mxCell id="K9l5YCX1X9xidpUEGkAi-74" value="" style="shape=partialRectangle;html=1;whiteSpace=wrap;collapsible=0;dropTarget=0;pointerEvents=0;fillColor=none;top=0;left=0;bottom=0;right=0;points=[[0,0.5],[1,0.5]];portConstraint=eastwest;" vertex="1" parent="K9l5YCX1X9xidpUEGkAi-73">
          <mxGeometry width="110" height="31" as="geometry" />
        </mxCell>
        <mxCell id="K9l5YCX1X9xidpUEGkAi-75" value="&lt;font style=&quot;font-size: 15px&quot;&gt;inode&lt;/font&gt;" style="shape=partialRectangle;html=1;whiteSpace=wrap;connectable=0;overflow=hidden;fillColor=none;top=0;left=0;bottom=0;right=0;" vertex="1" parent="K9l5YCX1X9xidpUEGkAi-74">
          <mxGeometry width="110" height="31" as="geometry" />
        </mxCell>
        <mxCell id="K9l5YCX1X9xidpUEGkAi-76" value="" style="shape=partialRectangle;html=1;whiteSpace=wrap;collapsible=0;dropTarget=0;pointerEvents=0;fillColor=none;top=0;left=0;bottom=0;right=0;points=[[0,0.5],[1,0.5]];portConstraint=eastwest;" vertex="1" parent="K9l5YCX1X9xidpUEGkAi-73">
          <mxGeometry y="31" width="110" height="20" as="geometry" />
        </mxCell>
        <mxCell id="K9l5YCX1X9xidpUEGkAi-77" value="" style="shape=partialRectangle;html=1;whiteSpace=wrap;connectable=0;overflow=hidden;fillColor=none;top=0;left=0;bottom=0;right=0;" vertex="1" parent="K9l5YCX1X9xidpUEGkAi-76">
          <mxGeometry width="110" height="20" as="geometry" />
        </mxCell>
        <mxCell id="K9l5YCX1X9xidpUEGkAi-78" value="" style="shape=partialRectangle;html=1;whiteSpace=wrap;collapsible=0;dropTarget=0;pointerEvents=0;fillColor=none;top=0;left=0;bottom=0;right=0;points=[[0,0.5],[1,0.5]];portConstraint=eastwest;" vertex="1" parent="K9l5YCX1X9xidpUEGkAi-73">
          <mxGeometry y="51" width="110" height="31" as="geometry" />
        </mxCell>
        <mxCell id="K9l5YCX1X9xidpUEGkAi-79" value="&lt;font style=&quot;font-size: 15px&quot;&gt;i_fop&lt;/font&gt;" style="shape=partialRectangle;html=1;whiteSpace=wrap;connectable=0;overflow=hidden;fillColor=none;top=0;left=0;bottom=0;right=0;" vertex="1" parent="K9l5YCX1X9xidpUEGkAi-78">
          <mxGeometry width="110" height="31" as="geometry" />
        </mxCell>
        <mxCell id="K9l5YCX1X9xidpUEGkAi-80" value="" style="shape=partialRectangle;html=1;whiteSpace=wrap;collapsible=0;dropTarget=0;pointerEvents=0;fillColor=none;top=0;left=0;bottom=0;right=0;points=[[0,0.5],[1,0.5]];portConstraint=eastwest;" vertex="1" parent="K9l5YCX1X9xidpUEGkAi-73">
          <mxGeometry y="82" width="110" height="20" as="geometry" />
        </mxCell>
        <mxCell id="K9l5YCX1X9xidpUEGkAi-81" value="" style="shape=partialRectangle;html=1;whiteSpace=wrap;connectable=0;overflow=hidden;fillColor=none;top=0;left=0;bottom=0;right=0;" vertex="1" parent="K9l5YCX1X9xidpUEGkAi-80">
          <mxGeometry width="110" height="20" as="geometry" />
        </mxCell>
        <mxCell id="K9l5YCX1X9xidpUEGkAi-82" value="" style="endArrow=classic;html=1;exitX=0;exitY=0.5;exitDx=0;exitDy=0;entryX=1;entryY=0.5;entryDx=0;entryDy=0;strokeWidth=2;" edge="1" parent="1" source="K9l5YCX1X9xidpUEGkAi-56" target="K9l5YCX1X9xidpUEGkAi-74">
          <mxGeometry width="50" height="50" relative="1" as="geometry">
            <mxPoint x="170" y="472" as="sourcePoint" />
            <mxPoint x="220" y="422" as="targetPoint" />
            <Array as="points">
              <mxPoint x="210" y="387" />
              <mxPoint x="210" y="336" />
            </Array>
          </mxGeometry>
        </mxCell>
        <mxCell id="K9l5YCX1X9xidpUEGkAi-83" value="" style="shape=table;html=1;whiteSpace=wrap;startSize=0;container=1;collapsible=0;childLayout=tableLayout;strokeWidth=2;" vertex="1" parent="1">
          <mxGeometry x="430" y="483" width="300" height="91" as="geometry" />
        </mxCell>
        <mxCell id="K9l5YCX1X9xidpUEGkAi-84" value="" style="shape=partialRectangle;html=1;whiteSpace=wrap;collapsible=0;dropTarget=0;pointerEvents=0;fillColor=none;top=0;left=0;bottom=0;right=0;points=[[0,0.5],[1,0.5]];portConstraint=eastwest;" vertex="1" parent="K9l5YCX1X9xidpUEGkAi-83">
          <mxGeometry width="300" height="31" as="geometry" />
        </mxCell>
        <mxCell id="K9l5YCX1X9xidpUEGkAi-85" value="&lt;font style=&quot;font-size: 15px&quot;&gt;file_operations&lt;/font&gt;" style="shape=partialRectangle;html=1;whiteSpace=wrap;connectable=0;overflow=hidden;fillColor=none;top=0;left=0;bottom=0;right=0;" vertex="1" parent="K9l5YCX1X9xidpUEGkAi-84">
          <mxGeometry width="300" height="31" as="geometry" />
        </mxCell>
        <mxCell id="K9l5YCX1X9xidpUEGkAi-86" value="" style="shape=partialRectangle;html=1;whiteSpace=wrap;collapsible=0;dropTarget=0;pointerEvents=0;fillColor=none;top=0;left=0;bottom=0;right=0;points=[[0,0.5],[1,0.5]];portConstraint=eastwest;" vertex="1" parent="K9l5YCX1X9xidpUEGkAi-83">
          <mxGeometry y="31" width="300" height="20" as="geometry" />
        </mxCell>
        <mxCell id="K9l5YCX1X9xidpUEGkAi-87" value="" style="shape=partialRectangle;html=1;whiteSpace=wrap;connectable=0;overflow=hidden;fillColor=none;top=0;left=0;bottom=0;right=0;" vertex="1" parent="K9l5YCX1X9xidpUEGkAi-86">
          <mxGeometry width="300" height="20" as="geometry" />
        </mxCell>
        <mxCell id="K9l5YCX1X9xidpUEGkAi-88" value="" style="shape=partialRectangle;html=1;whiteSpace=wrap;collapsible=0;dropTarget=0;pointerEvents=0;fillColor=none;top=0;left=0;bottom=0;right=0;points=[[0,0.5],[1,0.5]];portConstraint=eastwest;" vertex="1" parent="K9l5YCX1X9xidpUEGkAi-83">
          <mxGeometry y="51" width="300" height="20" as="geometry" />
        </mxCell>
        <mxCell id="K9l5YCX1X9xidpUEGkAi-89" value="" style="shape=partialRectangle;html=1;whiteSpace=wrap;connectable=0;overflow=hidden;fillColor=none;top=0;left=0;bottom=0;right=0;" vertex="1" parent="K9l5YCX1X9xidpUEGkAi-88">
          <mxGeometry width="300" height="20" as="geometry" />
        </mxCell>
        <mxCell id="K9l5YCX1X9xidpUEGkAi-90" value="" style="shape=partialRectangle;html=1;whiteSpace=wrap;collapsible=0;dropTarget=0;pointerEvents=0;fillColor=none;top=0;left=0;bottom=0;right=0;points=[[0,0.5],[1,0.5]];portConstraint=eastwest;" vertex="1" parent="K9l5YCX1X9xidpUEGkAi-83">
          <mxGeometry y="71" width="300" height="20" as="geometry" />
        </mxCell>
        <mxCell id="K9l5YCX1X9xidpUEGkAi-91" value="" style="shape=partialRectangle;html=1;whiteSpace=wrap;connectable=0;overflow=hidden;fillColor=none;top=0;left=0;bottom=0;right=0;" vertex="1" parent="K9l5YCX1X9xidpUEGkAi-90">
          <mxGeometry width="300" height="20" as="geometry" />
        </mxCell>
        <mxCell id="K9l5YCX1X9xidpUEGkAi-92" value="" style="endArrow=classic;html=1;strokeWidth=2;exitX=1;exitY=0.5;exitDx=0;exitDy=0;" edge="1" parent="1" source="K9l5YCX1X9xidpUEGkAi-37">
          <mxGeometry width="50" height="50" relative="1" as="geometry">
            <mxPoint x="660" y="422" as="sourcePoint" />
            <mxPoint x="590" y="480" as="targetPoint" />
            <Array as="points">
              <mxPoint x="710" y="305" />
              <mxPoint x="730" y="305" />
              <mxPoint x="730" y="430" />
              <mxPoint x="590" y="430" />
            </Array>
          </mxGeometry>
        </mxCell>
        <mxCell id="K9l5YCX1X9xidpUEGkAi-95" value="" style="endArrow=classic;html=1;strokeWidth=2;entryX=0.464;entryY=1.2;entryDx=0;entryDy=0;entryPerimeter=0;" edge="1" parent="1" target="K9l5YCX1X9xidpUEGkAi-80">
          <mxGeometry width="50" height="50" relative="1" as="geometry">
            <mxPoint x="590" y="460" as="sourcePoint" />
            <mxPoint x="110" y="460" as="targetPoint" />
            <Array as="points">
              <mxPoint x="340" y="460" />
              <mxPoint x="220" y="460" />
              <mxPoint x="160" y="460" />
              <mxPoint x="111" y="460" />
            </Array>
          </mxGeometry>
        </mxCell>
      </root>
    </mxGraphModel>
  </diagram>
</mxfile>
